<?xml version="1.0" encoding="UTF-8" standalone="no"?>
<!-- Created with Inkscape (http://www.inkscape.org/) -->

<svg
   xmlns:osb="http://www.openswatchbook.org/uri/2009/osb"
   xmlns:dc="http://purl.org/dc/elements/1.1/"
   xmlns:cc="http://creativecommons.org/ns#"
   xmlns:rdf="http://www.w3.org/1999/02/22-rdf-syntax-ns#"
   xmlns:svg="http://www.w3.org/2000/svg"
   xmlns="http://www.w3.org/2000/svg"
   xmlns:sodipodi="http://sodipodi.sourceforge.net/DTD/sodipodi-0.dtd"
   xmlns:inkscape="http://www.inkscape.org/namespaces/inkscape"
   width="210mm"
   height="297mm"
   viewBox="0 0 744.09448819 1052.3622047"
   id="svg2"
   version="1.1"
   inkscape:version="0.91 r13725"
   sodipodi:docname="drawing_black.svg"
   inkscape:export-filename="/home/enilton/workspace/ng-buscamed/src/assets/images/login-register/logo.png"
   inkscape:export-xdpi="90"
   inkscape:export-ydpi="90">
  <defs
     id="defs4">
    <linearGradient
       id="linearGradient4199"
       osb:paint="solid">
      <stop
         style="stop-color:#000000;stop-opacity:1;"
         offset="0"
         id="stop4201" />
    </linearGradient>
    <inkscape:perspective
       sodipodi:type="inkscape:persp3d"
       inkscape:vp_x="0 : 526.1811 : 1"
       inkscape:vp_y="0 : 1000 : 0"
       inkscape:vp_z="744.09449 : 526.1811 : 1"
       inkscape:persp3d-origin="372.04724 : 350.7874 : 1"
       id="perspective3340" />
  </defs>
  <sodipodi:namedview
     id="base"
     pagecolor="#ffffff"
     bordercolor="#666666"
     borderopacity="1.0"
     inkscape:pageopacity="0.0"
     inkscape:pageshadow="2"
     inkscape:zoom="0.98994949"
     inkscape:cx="109.15443"
     inkscape:cy="557.59088"
     inkscape:document-units="px"
     inkscape:current-layer="layer1"
     showgrid="false"
     inkscape:window-width="1366"
     inkscape:window-height="744"
     inkscape:window-x="0"
     inkscape:window-y="24"
     inkscape:window-maximized="1" />
  <metadata
     id="metadata7">
    <rdf:RDF>
      <cc:Work
         rdf:about="">
        <dc:format>image/svg+xml</dc:format>
        <dc:type
           rdf:resource="http://purl.org/dc/dcmitype/StillImage" />
        <dc:title />
      </cc:Work>
    </rdf:RDF>
  </metadata>
  <g
     inkscape:label="Camada 1"
     inkscape:groupmode="layer"
     id="layer1">
    <g
       id="g4209">
      <rect
         transform="matrix(0.74087498,0.67164296,-0.67164296,0.74087498,0,0)"
         rx="72.796158"
         ry="60.071136"
         y="65.670914"
         x="453.31281"
         height="382.73514"
         width="145.59232"
         id="rect3356"
         style="fill:#0000ff;fill-opacity:0;fill-rule:evenodd;stroke:#000000;stroke-width:1.12198389px;stroke-linecap:butt;stroke-linejoin:miter;stroke-opacity:1" />
      <rect
         inkscape:transform-center-y="1.4311228"
         inkscape:transform-center-x="3.4532286"
         transform="matrix(0.82033237,0.57188706,-0.68371198,0.72975196,0,0)"
         rx="32.084103"
         ry="29.038998"
         y="329.7038"
         x="546.35669"
         height="173.76111"
         width="64.168205"
         id="rect3356-3"
         style="opacity:0.98999999;fill:#00000c;fill-opacity:1;fill-rule:evenodd;stroke:#000000;stroke-width:0.50188529px;stroke-linecap:butt;stroke-linejoin:miter;stroke-opacity:1" />
      <path
         sodipodi:nodetypes="cc"
         inkscape:connector-curvature="0"
         id="path4175"
         d="m 171.42857,485.57649 107.85714,98.92857"
         style="fill:none;fill-rule:evenodd;stroke:#000000;stroke-width:81.30000305;stroke-linecap:butt;stroke-linejoin:miter;stroke-miterlimit:4;stroke-dasharray:none;stroke-opacity:1" />
      <ellipse
         ry="22.5"
         rx="23.928572"
         cy="419.14792"
         cx="291.78571"
         id="path4177"
         style="opacity:0.98999999;fill:#fbfd00;fill-opacity:1;stroke-width:0.1;stroke-miterlimit:4;stroke-dasharray:none" />
      <path
         inkscape:connector-curvature="0"
         d="m 303.39363,446.91697 c 0.49301,3.87379 1.44411,7.66772 2.14999,11.50492 0.2238,1.75034 0.77967,3.42785 1.06963,5.16563 0.19665,1.36979 0.20924,2.75608 0.22204,4.13708 -0.003,1.40326 -0.0511,2.79695 0.15959,4.18721 0.24883,1.44695 0.7148,2.83844 0.97746,4.28452 0.19692,1.44595 0.56486,2.85728 0.77316,4.30217 0.32491,1.4243 0.62281,2.84704 0.78819,4.29959 0.13833,1.43949 0.14812,2.88685 0.15717,4.33165 -0.0313,1.42583 0.3045,2.82379 0.48519,4.2319 0.0239,1.3032 0.37035,2.54915 0.61925,3.818 0.12774,1.24174 0.31328,2.45267 0.59525,3.66802 0.29832,1.31357 0.36671,2.66084 0.41366,4.00223 0.0394,1.33328 -0.0468,2.66056 0.19843,3.97631 0.29643,1.28072 0.4155,2.58794 0.48681,3.89736 0.0593,1.4192 0.0572,2.84001 0.0584,4.26017 -3.6e-4,1.19187 -0.002,2.38373 -0.003,3.5756 0,0 -9.37181,4.7741 -9.37181,4.7741 l 0,0 c 10e-4,-1.19141 0.003,-2.38282 0.004,-3.57423 0,-1.40339 0.004,-2.80723 -0.0428,-4.21005 -0.0562,-1.25992 -0.14541,-2.52148 -0.43389,-3.75343 -0.2818,-1.37211 -0.26224,-2.741 -0.25739,-4.13883 -0.035,-1.27443 -0.0782,-2.55624 -0.3419,-3.80813 -0.28032,-1.23065 -0.5353,-2.44263 -0.60915,-3.70736 -0.23558,-1.29703 -0.63156,-2.5617 -0.62739,-3.89291 -0.16439,-1.44972 -0.52415,-2.88091 -0.54249,-4.33954 -0.004,-1.41365 -0.004,-2.82915 -0.10855,-4.23976 -0.13451,-1.44635 -0.39181,-2.86885 -0.77282,-4.27185 -0.17841,-1.44046 -0.55048,-2.83744 -0.75508,-4.27034 -0.22944,-1.45805 -0.69484,-2.84741 -0.98086,-4.2901 -0.25154,-1.43946 -0.29055,-2.86629 -0.24096,-4.32785 -0.008,-1.33488 -0.0119,-2.67335 -0.15815,-4.0019 -0.23634,-1.76491 -0.74356,-3.48207 -0.867,-5.26341 -0.51728,-3.85215 -1.26494,-7.66601 -2.17617,-11.44451 0,0 9.13176,-4.88226 9.13176,-4.88226 z"
         id="path4179"
         style="opacity:0.98999999;fill:#000000;fill-opacity:1;stroke-width:81.30000305;stroke-miterlimit:4;stroke-dasharray:none" />
      <path
         inkscape:connector-curvature="0"
         d="m 299.56985,438.95609 c 0.93924,3.03015 2.18498,5.94934 3.31087,8.91117 0.38308,1.29339 0.89989,2.54933 1.22796,3.85874 0.20708,0.94843 0.22262,1.92212 0.23661,2.88842 -0.0244,0.87752 0.22321,1.72896 0.34682,2.59246 0.40665,3.47165 -1.82879,2.77268 -6.53375,5.35497 -0.13159,0.0722 -0.2551,-0.1583 -0.38399,-0.23524 -0.10471,-0.0625 -0.21117,-0.12204 -0.31675,-0.18306 -0.6979,-0.59675 -1.33488,-1.21075 -1.76991,-2.0262 -0.48953,-0.73352 -0.80546,-1.55815 -1.20757,-2.33629 -0.41467,-0.83012 -0.68449,-1.72965 -0.93799,-2.62056 -0.24612,-1.005 -0.53727,-1.99269 -0.70627,-3.01505 -0.12634,-1.00462 -0.29848,-2.01474 -0.67427,-2.95794 -0.37615,-0.86038 -0.87907,-1.6612 -1.35471,-2.47022 -0.41729,-0.81071 -0.61348,-1.71041 -0.95123,-2.55204 -0.40417,-0.85213 -0.56712,-1.77045 -0.66226,-2.70012 -0.0774,-1.00039 -0.0735,-2.00469 -0.0746,-3.00738 0.0265,-0.97112 -0.0769,-1.95167 0.11637,-2.90918 1.07657,-2.70181 0.21564,-0.75202 6.94742,-3.94809 0.0436,-0.0207 1.37067,0.73684 1.50683,0.80892 0.82387,0.6344 1.64724,1.27063 2.43449,1.95205 1.00808,0.77739 1.73934,1.80621 2.53394,2.78021 0.63612,0.80838 0.99569,1.78722 1.30012,2.75928 0.16392,0.91185 0.45539,1.79131 0.65385,2.69515 0.27776,0.9329 0.47687,1.88457 0.73883,2.82157 0.2018,0.93904 0.41689,1.8664 0.66829,2.79341 0.22356,0.86842 0.23483,1.764 0.4419,2.63469 0.2258,0.88736 0.29106,1.79976 0.48229,2.69385 0.22156,0.94022 0.26987,1.90329 0.50652,2.83918 0.25934,0.92633 0.34852,1.88265 0.3842,2.84001 0.12889,1.12568 0.32889,2.24002 0.43891,3.36847 0.0896,1.03699 0.10071,2.07835 0.10835,3.11848 0.0443,1.01119 0.33739,1.97732 0.59584,2.94751 0.26694,1.01301 0.34557,2.05783 0.39166,3.10005 -0.003,0.8901 0.2487,1.75148 0.37537,2.62799 0.10447,0.97564 0.3542,1.92558 0.49353,2.89682 0.12201,1.00554 0.1105,2.01506 0.27636,3.01505 0.18836,0.95129 0.23372,1.91808 0.46984,2.85904 0.23146,0.841 0.2823,1.70971 0.50642,2.55132 0.25944,0.89223 0.33979,1.81741 0.39082,2.74072 0.008,0.88081 0.26078,1.73192 0.38762,2.59978 0.10551,0.97694 0.35511,1.92829 0.49449,2.90096 0.0723,1.21433 0.18,2.41535 0.35068,3.62081 0.19896,1.13291 0.19757,2.28699 0.33447,3.42555 0.20047,1.01967 0.34329,2.04606 0.42196,3.08195 0.16305,1.00572 0.35925,2.00249 0.46581,3.01684 0.0915,1.01716 0.0997,2.03914 0.10663,3.05961 -0.01,1.02436 0.0365,2.05033 -0.0416,3.07232 -0.1419,1.06818 -0.50354,2.09608 -0.86683,3.10648 -0.45348,0.96627 -0.75304,1.97378 -1.01107,3.00505 -0.26463,1.00319 -0.49641,2.01363 -0.75182,3.0194 -0.27524,0.85772 -0.58519,1.68915 -0.73583,2.58055 -0.0618,0.87427 -0.32487,1.71148 -0.47183,2.57173 -0.0854,0.97694 -0.18762,1.94266 -0.36466,2.90792 -0.19491,0.95875 -0.1909,1.94074 -0.38696,2.89801 -0.23243,0.86599 -0.32744,1.75451 -0.38208,2.64657 0.007,1.0231 -0.077,2.02748 -0.24637,3.03529 -0.1088,1.02682 -0.36227,2.02618 -0.55888,3.03733 -0.10876,1.02038 -0.33638,2.01924 -0.51927,3.02733 -0.40473,3.04424 0.38833,0.90397 -6.75778,4.24297 -0.0942,0.044 -0.54779,-1.10213 -0.57615,-1.1742 -0.36542,-1.43669 -0.69756,-2.88234 -1.03066,-4.32709 -0.16272,-1.16271 -0.64455,-2.23077 -1.03758,-3.32429 -0.33851,-0.9403 -0.54338,-1.92287 -0.85167,-2.87059 -0.34889,-0.86743 -0.4973,-1.78271 -0.58272,-2.70774 -0.0581,-1.01196 -0.10192,-2.02873 -0.027,-3.04035 0.18407,-1.12279 0.53653,-2.21006 0.80891,-3.31525 0.25348,-1.10298 0.62053,-2.17478 0.88837,-3.27351 0.18856,-1.01342 0.46883,-2.00382 0.63109,-3.0223 0.0762,-1.09726 0.30153,-2.17262 0.45807,-3.25936 0.14649,-1.07594 0.18291,-2.16181 0.20383,-3.24609 -0.008,-1.00097 0.0551,-2.00582 -0.0313,-3.00403 -0.0902,-0.98012 -0.376,-1.89358 -0.78855,-2.77943 0.1175,-0.10027 -0.48967,-0.8712 -0.41841,-0.91083 2.18345,-1.21419 7.29953,-1.01137 6.66521,-3.42784 -2.19468,1.12221 -4.35474,2.31491 -6.58406,3.36664 -0.092,0.0434 0.0633,-0.19479 0.075,-0.29585 0.0168,-0.14502 0.0152,-0.29196 0.01,-0.43786 -0.0237,-0.66988 -0.16888,-1.30738 -0.31309,-1.95895 -0.3731,-1.30133 -0.65686,-2.63998 -1.21098,-3.87993 -0.29525,-0.84689 -0.8061,-1.57404 -1.23436,-2.34873 -0.51147,-0.9394 -0.99304,-1.8962 -1.45655,-2.86033 -0.47066,-0.92172 -1.06347,-1.71145 -1.791,-2.43982 -0.98425,-1.06318 -2.08245,-2.01417 -3.14041,-3.00261 -1.27215,-1.08566 -2.42527,-2.27806 -3.51294,-3.54632 -1.12373,-1.42275 -2.2677,-2.83245 -3.46218,-4.19714 -1.26815,-1.2869 -2.6386,-2.46095 -3.87585,-3.77833 -1.05482,-1.06241 -2.16224,-2.0628 -3.34214,-2.98278 -0.8846,-0.49504 -1.60037,-1.24734 -2.49684,-1.71516 -0.89488,-0.37002 -1.57631,-1.03499 -2.33944,-1.60467 -0.90912,-0.75365 -1.90034,-1.41113 -2.69041,-2.29256 -1.14266,-1.10513 -2.12825,-2.34637 -3.09783,-3.60146 -1.07231,-1.33948 -2.13396,-2.6878 -3.17459,-4.05225 -1.05398,-1.35728 -1.97107,-2.81229 -2.98227,-4.20056 -0.86698,-1.34167 -1.6544,-2.72345 -2.35076,-4.16066 -0.65611,-1.41855 -1.29393,-2.84533 -1.92204,-4.27698 -0.58025,-1.20464 -1.13203,-2.41931 -1.65663,-3.64866 -0.16107,-0.4872 -0.42189,-0.929 -0.65675,-1.38212 0,0 6.46741,-3.68673 6.46741,-3.68673 l 0,0 c 0.23372,0.47279 0.49265,0.9358 0.65517,1.43998 0.52102,1.23041 1.02397,2.46722 1.60473,3.67224 0.61027,1.42968 1.27354,2.83635 1.92594,4.24687 0.64914,1.41025 1.42533,2.74869 2.25537,4.05997 0.99448,1.39245 1.92821,2.8282 2.96531,4.19019 1.03116,1.36811 2.12831,2.68622 3.17411,4.04357 0.96264,1.23845 1.9694,2.43788 3.12361,3.50512 0.80362,0.81431 1.74503,1.47387 2.64668,2.17459 0.73435,0.57124 1.46624,1.12017 2.31436,1.51742 0.8629,0.56544 1.62997,1.26697 2.48936,1.83992 1.1887,0.96017 2.29736,2.01227 3.3751,3.09498 1.22301,1.34064 2.59272,2.52231 3.86713,3.81204 1.18114,1.37798 2.32864,2.78403 3.46601,4.19782 1.07709,1.24873 2.25446,2.38099 3.50092,3.4597 1.06396,0.99396 2.1649,1.95113 3.17785,2.99761 0.81193,0.77113 1.44043,1.65117 1.94011,2.65561 0.45077,0.95003 0.93445,1.88748 1.46091,2.79739 0.46247,0.79045 0.94541,1.56156 1.23976,2.43841 0.5438,1.2976 0.82753,2.67676 1.2458,4.01696 1.12204,4.84064 0.86137,2.85437 -6.1748,6.70545 -1.42043,-2.46249 3.60078,-2.51276 6.42938,-4.06531 0.0359,-0.0197 -0.0113,0.0836 2.6e-4,0.12292 0.0332,0.1132 0.0883,0.2188 0.13206,0.32834 0.0541,0.13532 0.10774,0.27083 0.16161,0.40624 0.43452,0.95645 0.77172,1.93676 0.88837,2.98829 0.15411,1.02401 0.0596,2.06365 0.0752,3.09681 -0.0177,1.11285 -0.0491,2.2271 -0.18304,3.33318 -0.13913,1.08793 -0.37517,2.15788 -0.43489,3.25338 -0.13233,1.04464 -0.40625,2.04998 -0.61111,3.07857 -0.23314,1.12293 -0.63604,2.19246 -0.89486,3.30891 -0.30594,1.06098 -0.50793,2.15358 -0.8293,3.2081 -0.16511,0.95562 -0.0487,1.93644 -0.0322,2.90191 0.0642,0.87097 0.17739,1.73582 0.50407,2.55351 0.30875,0.94317 0.49398,1.92779 0.83251,2.86389 0.38338,1.1338 0.88777,2.23185 1.0087,3.43966 0.29669,1.40357 0.66345,2.79073 1.06357,4.1679 0.0492,0.11773 0.0921,0.23836 0.14773,0.35318 0.0506,0.10436 0.28301,0.23577 0.18362,0.29554 -8.9139,5.36128 -6.77285,6.01217 -6.1905,3.18733 0.15891,-1.01673 0.44481,-2.0059 0.51591,-3.03507 0.16944,-1.01612 0.47442,-2.00046 0.56232,-3.02923 0.16552,-0.98403 0.3412,-1.94827 0.27769,-2.95342 0.0349,-0.92636 0.0832,-1.85835 0.31096,-2.76127 0.25039,-0.9469 0.29197,-1.90138 0.42207,-2.87224 0.1688,-0.95845 0.3578,-1.89893 0.36015,-2.87776 0.10576,-0.87379 0.37096,-1.70407 0.47798,-2.56988 0.10285,-0.92155 0.28402,-1.82286 0.71807,-2.65329 0.23304,-1.01855 0.52035,-2.02041 0.74257,-3.0415 0.31045,-1.02556 0.43807,-2.11126 0.99083,-3.05587 0.34342,-0.97255 0.72837,-1.94206 0.93155,-2.95446 0.17002,-0.98421 0.0441,-1.99337 0.0825,-2.98865 -0.003,-1.00022 -0.005,-2.00156 -0.0752,-2.99983 -0.0888,-1.02306 -0.25938,-2.03132 -0.47574,-3.03514 -0.0609,-1.02065 -0.17588,-2.03546 -0.38936,-3.03674 -0.18549,-1.13721 -0.11395,-2.30215 -0.30781,-3.44173 -0.16719,-1.20036 -0.34165,-2.39331 -0.38764,-3.60625 -0.12205,-0.97478 -0.37712,-1.92042 -0.50669,-2.89082 -0.11717,-0.89239 -0.38724,-1.76163 -0.40978,-2.66228 -0.0387,-0.87104 -0.0935,-1.74705 -0.33288,-2.59047 -0.23307,-0.84744 -0.30611,-1.71006 -0.50663,-2.56513 -0.24583,-0.96238 -0.30603,-1.94074 -0.47714,-2.91818 -0.18587,-1.00976 -0.22429,-2.01629 -0.29246,-3.03983 -0.12211,-0.97375 -0.3775,-1.91833 -0.50628,-2.88781 -0.11741,-0.90399 -0.3882,-1.78729 -0.39533,-2.70081 -0.0302,-0.99225 -0.0778,-1.98958 -0.31197,-2.9587 -0.26395,-1.03085 -0.59065,-2.0432 -0.68614,-3.11037 -0.003,-1.02308 -0.005,-2.04708 -0.0718,-3.06846 -0.0887,-1.14085 -0.25424,-2.27043 -0.45355,-3.39708 -0.0468,-0.90413 -0.0981,-1.8133 -0.33887,-2.6912 -0.2431,-0.94684 -0.30486,-1.91064 -0.50358,-2.86717 -0.20378,-0.88696 -0.30401,-1.78097 -0.49323,-2.67055 -0.21622,-0.8685 -0.25793,-1.74732 -0.43075,-2.6242 -0.23888,-0.92884 -0.47026,-1.84939 -0.64332,-2.7933 -0.26985,-0.951 -0.47393,-1.91565 -0.78152,-2.85606 -0.1767,-0.88933 -0.48106,-1.74531 -0.60936,-2.64484 -0.25952,-0.88799 -0.59253,-1.77869 -1.14717,-2.52653 -0.73619,-0.96176 -1.4623,-1.9269 -2.44772,-2.65698 -0.76806,-0.62908 -1.55342,-1.24745 -2.38054,-1.79552 -0.22524,-0.11734 -0.50564,-0.2736 -0.74818,-0.36448 -0.10123,-0.0379 -0.2037,-0.0795 -0.31113,-0.0915 -0.0759,-0.008 -0.29261,0.07 -0.22682,0.0313 6.17162,-3.62931 8.5388,-3.04208 5.87983,-3.61667 -0.6354,0.62015 -0.18424,1.82559 -0.30334,2.62879 -5e-4,0.98102 -0.006,1.96306 0.0511,2.9428 0.07,0.86186 0.19088,1.71605 0.56583,2.50655 0.32518,0.80854 0.53009,1.66496 0.90558,2.45457 0.48279,0.84305 0.97708,1.68536 1.37177,2.57328 0.42476,0.98484 0.64634,2.0474 0.76914,3.11084 0.14135,1.00035 0.42364,1.95763 0.67026,2.93403 0.22961,0.84605 0.50872,1.68894 0.87697,2.48386 0.39295,0.7798 0.72488,1.58946 1.20239,2.32659 0.33927,0.64967 0.88021,1.20366 1.52448,1.55794 0.0791,0.0125 0.16243,0.0661 0.23725,0.0376 0.0564,-0.0215 0.13584,-0.19128 0.0842,-0.16011 -2.05462,1.24088 -4.07666,2.53492 -6.11499,3.80237 0.0632,-0.0557 0.15335,-0.0912 0.18958,-0.16724 0.11122,-0.23355 0.0404,-0.57222 0.0186,-0.80362 -0.11616,-0.89595 -0.38503,-1.77363 -0.37935,-2.67945 -0.009,-0.91676 -0.0114,-1.83928 -0.16606,-2.74571 -0.2714,-1.30908 -0.72481,-2.5757 -1.01864,-3.87998 -0.96283,-3.00373 -2.05594,-5.97302 -3.30832,-8.86787 0,0 6.34448,-3.55133 6.34448,-3.55133 z"
         id="path4181"
         style="opacity:0.98999999;fill:#000000;fill-opacity:1;stroke-width:81.30000305;stroke-miterlimit:4;stroke-dasharray:none" />
      <path
         inkscape:connector-curvature="0"
         d="m 308.8115,502.29825 c -0.24275,-1.58234 -0.56849,-3.15008 -0.73089,-4.74344 -0.0843,-1.6251 -0.24123,-3.24367 -0.41934,-4.8608 -0.12314,-1.20494 -0.28737,-2.40423 -0.46808,-3.60156 -0.13056,-1.0001 -0.37805,-1.97965 -0.53814,-2.97392 -0.0224,-0.45306 -0.52107,-2.47584 -0.40198,-2.71683 0.11428,-0.23128 2.2798,-2.67545 2.47026,-2.89258 1.67514,-2.72696 2.46018,-5.85799 3.14898,-8.95147 0.37498,-1.79602 0.7868,-3.58481 1.24211,-5.36219 0.36751,-1.45725 0.70777,-2.92112 1.05255,-4.38387 0.40319,-1.63241 0.74233,-3.27935 1.09204,-4.92386 0.3301,-1.47078 0.59455,-2.95509 0.90855,-4.42918 0.30424,-1.32142 0.57965,-2.64914 0.83348,-3.9811 0.26436,-1.25246 0.48679,-2.51256 0.70878,-3.77307 0.26297,-1.3478 0.45217,-2.7038 0.5979,-4.06846 0.1645,-1.22318 0.25358,-2.45404 0.40618,-3.67869 0.21609,-1.39905 0.39605,-2.80021 0.5431,-4.208 0.18743,-1.35387 0.18621,-2.71992 0.23174,-4.08247 0.0939,-1.43916 0.11811,-2.87969 0.0855,-4.32111 -0.044,-1.41897 -0.12808,-2.83628 -0.21009,-4.25344 -0.0665,-1.14772 -0.34668,-2.25437 -0.61598,-3.36524 -0.19403,-0.96929 -0.36117,-1.94855 -0.65534,-2.89408 -0.12841,-0.16216 -0.52605,-1.06144 -0.32991,-0.31293 0,0 8.75657,-6.11929 8.75657,-6.11929 l 0,0 c 0.35583,0.40783 0.65079,0.83535 0.8625,1.33848 0.30488,0.96905 0.48915,1.97163 0.67092,2.9697 0.27409,1.17492 0.55784,2.34439 0.66453,3.55086 0.079,1.43068 0.15579,2.86163 0.2018,4.29383 0.0427,1.45897 0.0868,2.91928 -0.0304,4.37646 -0.0784,1.38151 -0.0131,2.77176 -0.20802,4.14704 -0.16355,1.41014 -0.28287,2.82416 -0.5233,4.22479 -0.1736,1.22157 -0.22827,2.45281 -0.39437,3.6748 -0.22413,1.36592 -0.29749,2.75654 -0.5895,4.11402 -0.22751,1.26175 -0.37776,2.54009 -0.71541,3.77953 -0.2305,1.34236 -0.49641,2.67979 -0.8033,4.00665 -0.32637,1.48123 -0.64753,2.96274 -0.95879,4.44783 -0.34651,1.64434 -0.69472,3.28854 -1.06008,4.92861 -0.33143,1.47888 -0.69621,2.9504 -1.05422,4.42305 -0.48804,1.78374 -0.92958,3.5806 -1.35619,5.37987 -0.7684,3.21827 -1.66081,6.43862 -3.15523,9.40518 -3.11958,5.23384 1.05179,-0.81956 -2.53346,2.04905 -0.0241,0.0193 0.38108,2.32876 0.44578,2.63595 0.21266,0.99269 0.36161,1.99865 0.56586,2.99347 0.20052,1.22243 0.27016,2.46284 0.40597,3.6934 0.16892,1.62308 0.37404,3.24427 0.44027,4.87601 0.10249,1.54333 0.37421,3.07892 0.75117,4.57839 0,0 -9.33453,5.01061 -9.33453,5.01061 z"
         id="path4183"
         style="opacity:0.98999999;fill:#000000;fill-opacity:1;stroke-width:81.30000305;stroke-miterlimit:4;stroke-dasharray:none" />
      <path
         inkscape:connector-curvature="0"
         d="m 311.68547,497.97155 c -0.11088,-1.43418 -0.2785,-2.86399 -0.42779,-4.29481 -0.45547,-2.53417 -0.058,-3.93219 0.66195,-6.3488 0.71974,-2.76323 1.68615,-5.44566 2.72483,-8.10181 0.74583,-1.85214 1.45993,-3.71519 2.08115,-5.61292 0.58072,-1.84505 1.07222,-3.71655 1.55485,-5.58915 0.51151,-1.98352 1.00116,-3.97241 1.47658,-5.96487 0.3061,-1.25402 0.55822,-2.52016 0.83646,-3.78036 0.20089,-0.91694 0.41584,-1.83059 0.609,-2.74929 0.19141,-0.93235 0.40518,-1.85916 0.62462,-2.78526 0.32199,-1.3213 0.59476,-2.65367 0.90172,-3.97847 0.23779,-1.11109 0.45011,-2.22736 0.68051,-3.33994 0.23237,-1.00492 0.40072,-2.02217 0.58312,-3.03681 0.0932,-0.71699 0.29765,-1.42936 0.32301,-2.15402 -0.14116,-7.53751 12.03728,-4.89282 16.15252,-4.35469 1.50864,0.19728 3.02035,0.37079 4.53229,0.54097 10.84846,1.22105 -1.85656,-0.28466 7.89625,0.88495 2.45959,0.29744 4.91543,0.6273 7.37816,0.89865 1.28037,0.14107 2.37803,0.25064 3.57853,0.71165 1.06249,0.45221 2.14815,1.18848 1.12971,2.33213 0,0 -9.89087,3.84584 -9.89087,3.84584 l 0,0 c 0.19671,-0.048 0.3988,-0.25132 0.58357,-0.16852 0.15665,0.0702 0.24006,0.24621 0.37141,0.35672 0.0974,0.082 -0.18529,-0.1797 -0.2979,-0.23916 -0.18979,-0.10022 -0.39048,-0.17829 -0.58572,-0.26743 -3.15185,-1.08121 -6.97287,-1.06019 -10.2037,-1.86261 -4.07157,-0.59927 -8.1506,-1.1247 -12.24657,-1.53296 -1.4988,-0.14939 -4.80647,1.07982 -4.50137,-0.39518 0.53073,-2.56588 6.98319,-7.9038 5.68249,-5.4312 -0.21291,0.71034 -0.2043,1.47757 -0.381,2.19776 -0.18802,1.02053 -0.40442,2.03572 -0.57136,3.06015 -0.23525,1.12999 -0.51728,2.2498 -0.75,3.38045 -0.25987,1.32805 -0.58439,2.64118 -0.85682,3.96661 -0.19238,0.92502 -0.39033,1.84834 -0.60155,2.76923 -0.20738,0.91727 -0.38943,1.83998 -0.60294,2.75576 -0.29913,1.28747 -0.63925,2.5652 -0.94585,3.85091 -0.49391,1.99965 -1.0017,3.99588 -1.50743,5.99255 -0.47382,1.88348 -0.90572,3.77949 -1.49206,5.63244 -0.61846,1.93767 -1.29959,3.85292 -2.12552,5.71348 -1.08098,2.61937 -2.14759,5.25374 -2.82622,8.01245 -0.11023,0.46153 -0.2068,0.92654 -0.33069,1.38459 -0.17552,0.64892 -0.54543,1.25165 -0.61672,1.92009 -0.0912,0.85558 0.32228,1.75809 0.29332,2.61641 0.14104,1.41517 0.26241,2.83499 0.4887,4.23948 0,0 -9.38267,4.92499 -9.38267,4.92499 z"
         id="path4185"
         style="opacity:0.98999999;fill:#000000;fill-opacity:1;stroke-width:81.30000305;stroke-miterlimit:4;stroke-dasharray:none" />
      <path
         inkscape:connector-curvature="0"
         d="m 291.6089,495.65241 c -1.18692,-0.92393 -2.48333,-1.69814 -3.69344,-2.58815 -1.21916,-0.75322 -2.3781,-1.56864 -3.53295,-2.41305 -1.00829,-0.6814 -2.04609,-1.27729 -3.16718,-1.75842 -1.21099,-0.73777 -2.56467,-1.03591 -3.95354,-1.19924 -1.27475,-0.13762 -2.49533,-0.53126 -3.77573,-0.68231 -1.36724,-0.19468 -2.70181,-0.54908 -4.0825,-0.70547 -1.19957,-0.42697 -2.4344,-0.65549 -3.69812,-0.76862 -1.13719,-0.47064 -2.39315,-0.47464 -3.54174,-0.86681 -1.13151,-0.24745 -2.18659,-0.69197 -3.29414,-1.01535 -1.23364,-0.42011 -2.30416,-1.15682 -3.44977,-1.75698 -1.41971,-0.68991 -2.67409,-1.63507 -3.99325,-2.48873 -1.23699,-0.97847 -2.41116,-2.04125 -3.70918,-2.94078 -1.23239,-0.93248 -2.44211,-1.88194 -3.59297,-2.91596 -1.29815,-1.31848 -2.71469,-2.49104 -4.13827,-3.66797 -1.35811,-1.13919 -2.59946,-2.4043 -3.88661,-3.62249 -1.04727,-1.1935 -2.05756,-2.41409 -3.24043,-3.47752 -0.97488,-1.01308 -1.87237,-2.09841 -2.7302,-3.21057 -0.73149,-1.01696 -0.90403,-2.28543 -1.50988,-3.36487 -0.64483,-0.54885 -1.46321,-1.18538 -2.35066,-1.12054 0,0 8.66923,-6.0744 8.66923,-6.0744 l 0,0 c 1.08975,0.39299 2.13022,1.00064 2.84325,1.93219 0.56469,1.04814 0.77365,2.22882 1.39894,3.24188 0.8214,1.07261 1.6852,2.11029 2.63307,3.07464 1.12627,1.11398 2.15613,2.31334 3.2099,3.49466 1.27455,1.19636 2.45876,2.48673 3.83,3.57574 1.43566,1.17986 2.81729,2.41211 4.17059,3.68564 1.15065,0.98459 2.36714,1.88011 3.55226,2.82173 1.25572,0.93373 2.44801,1.94549 3.67712,2.91211 1.28734,0.86745 2.59251,1.68904 3.98348,2.38415 1.08471,0.60265 2.1597,1.23413 3.3622,1.57844 1.0796,0.37079 2.1681,0.68812 3.27054,0.98591 1.14622,0.2381 2.28708,0.49286 3.42976,0.74144 1.25513,0.17451 2.46315,0.51274 3.69555,0.79369 1.37421,0.20949 2.72124,0.5616 4.10591,0.70157 1.26034,0.21069 2.4872,0.58326 3.76288,0.70214 1.45128,0.26714 2.8288,0.72637 4.13219,1.42905 1.15714,0.55333 2.25211,1.18591 3.28226,1.95426 1.1308,0.86411 2.34806,1.58579 3.50894,2.40869 1.23861,0.88003 2.50451,1.72869 3.77831,2.55582 0,0 -8.95582,5.66448 -8.95582,5.66448 z"
         id="path4187"
         style="opacity:0.98999999;fill:#000000;fill-opacity:1;stroke-width:81.30000305;stroke-miterlimit:4;stroke-dasharray:none" />
      <path
         inkscape:connector-curvature="0"
         d="m 303.14443,553.54118 c 0.0312,-0.73078 0.0473,-1.46406 0.01,-2.19473 -0.0504,-0.87349 -0.1633,-1.73814 -0.30542,-2.60063 -0.1184,-0.66779 -0.12338,-1.34806 -0.20427,-2.01944 -0.0929,-0.59262 -0.16811,-1.18688 -0.21072,-1.78523 -0.0319,-0.52128 -0.0342,-1.0437 -0.0361,-1.56577 -0.0106,-0.524 0.0218,-1.04904 -0.0152,-1.57194 -0.0837,-0.65458 -0.1555,-1.30887 -0.19331,-1.96775 -0.0309,-0.58238 -0.0383,-1.1656 -0.0422,-1.74867 0.017,-0.13695 -0.076,-1.01259 -0.17232,-1.02478 0.23488,1.34782 -0.0222,0.14499 3.2227,-1.62652 0.0315,-0.0172 -0.0615,0.0409 -0.0806,0.0713 -0.0996,0.15898 -0.11278,0.42565 -0.14753,0.60064 -0.14565,0.60008 -0.20747,1.21302 -0.24355,1.82792 -0.0375,0.62621 -0.0271,1.25379 -0.0328,1.88074 0.0431,0.77211 0.18319,1.53312 0.29267,2.29732 0.11356,0.86299 0.17121,1.73208 0.19584,2.60181 0.0173,0.63737 0.0231,1.27496 0.0258,1.91254 0.0193,0.49223 0.004,0.97507 -0.0924,1.45805 -0.0659,0.42428 -0.21738,0.82794 -0.37398,1.22575 -0.15825,0.44719 -0.41872,0.84601 -0.60313,1.28053 -0.13531,0.38187 0.0671,0.61091 0.31873,0.86079 0.33546,0.26119 0.7121,0.45377 1.06589,0.68599 0.38702,0.25351 0.8343,0.31489 1.28462,0.35165 0.0324,-0.007 0.36301,-0.0732 0.39451,-0.0862 0.0568,-0.0235 0.20871,-0.12991 0.15512,-0.0998 -5.15545,2.89858 -3.79267,2.3532 -2.79632,1.52255 0.24734,-0.27248 0.38896,-0.61623 0.56499,-0.93437 0.176,-0.34996 0.34686,-0.69628 0.47282,-1.06767 0.1828,-0.44339 0.25956,-0.91294 0.30425,-1.38716 0.0607,-0.45963 0.0236,-0.90333 -0.0663,-1.35399 -0.0436,-0.44525 -0.27344,-0.81187 -0.52601,-1.1684 -0.29234,-0.41426 -0.63834,-0.78303 -0.96313,-1.17024 -0.33783,-0.27272 -0.49733,-0.67955 -0.72551,-1.0344 -0.11484,-0.33259 -0.19508,0.10006 -0.14524,0.0737 1.06906,-0.56472 2.07822,-1.23717 3.1381,-1.81894 0.0378,-0.0207 -0.0394,0.0785 -0.0451,0.1212 -0.009,0.0679 7.8e-4,0.13698 0.001,0.20548 0.12094,0.69989 0.23647,1.39993 0.31689,2.10594 0.0996,0.60084 -0.007,1.15538 -0.29653,1.68321 -0.9483,1.32828 -2.90217,1.99807 -4.1277,2.70049 -0.52078,0.1932 -0.89021,-0.0353 -1.32681,-0.29401 -0.40681,-0.28215 -0.73146,-0.61771 -0.97197,-1.05052 -0.28317,-0.72412 -0.37129,-1.49842 -0.43954,-2.26679 -0.0707,-0.98583 -0.0672,-1.97473 -0.079,-2.96243 -0.008,-0.75388 -0.0125,-1.50781 -0.0185,-2.26172 0.003,-0.70648 0.007,-1.41293 0.0106,-2.11941 -0.005,-0.83495 0.0385,-1.67191 -0.0247,-2.50521 -0.10157,-0.6737 -0.16899,-1.34962 -0.19742,-2.03021 -0.0742,-0.84848 -0.17656,-1.69411 -0.23123,-2.54426 -0.0391,-0.82689 -0.0436,-1.65486 -0.0544,-2.48246 0.003,-0.58191 -0.0481,-1.16584 0.0385,-1.74334 0.0675,-0.47935 0.20463,-0.93862 0.37849,-1.38888 0.71119,-1.76861 2.46466,-2.09137 4.18163,-3.06308 0.44936,-0.10732 0.91012,0.036 1.36069,0.0893 0.57061,0.0158 0.98908,0.32932 1.28132,0.79693 0.33108,0.57137 0.45708,1.22458 0.54348,1.87104 0.0351,0.48427 0.171,0.95173 0.24111,1.43129 0.0672,0.5125 0.0653,1.02977 0.0677,1.54551 0.0483,0.5563 0.14908,1.10573 0.20343,1.6617 0.0447,0.51441 0.0505,1.03102 0.0545,1.54701 -0.003,0.49253 0.0287,0.98568 -0.0508,1.47342 -0.0759,0.42095 -0.15116,0.8374 -0.27239,1.24778 -0.13381,0.43873 -0.13964,0.89906 -0.1926,1.35074 -0.1028,0.48171 -0.14051,0.97502 -0.26151,1.45249 -0.13446,0.43973 -0.17344,0.89845 -0.2719,1.34604 -0.10703,0.45819 -0.21598,0.92268 -0.38832,1.36164 -1.51103,1.19302 -3.50764,3.21946 -3.82187,0.99373 -0.0182,-0.8433 -0.11612,-1.67432 -0.26317,-2.50384 -0.20083,-0.74739 -0.37776,-1.49799 -0.48525,-2.2648 -0.0898,-0.81856 -0.0686,-1.64027 0.003,-2.45871 0.0558,-0.91231 0.1992,-1.81455 0.30792,-2.72109 0.0913,-0.74753 0.1161,-1.49995 0.12292,-2.25223 0.031,-0.70089 -0.0127,-1.39355 -0.10325,-2.08791 -0.0145,-0.56207 -0.28562,-1.00833 -0.57907,-1.4658 -0.0477,-0.08 -0.0953,-0.15999 -0.14299,-0.23998 0,0 3.21338,-1.86059 3.21338,-1.86059 l 0,0 c 0.0451,0.0762 0.0902,0.15234 0.13535,0.22852 0.32487,0.50058 0.63315,1.00214 0.64322,1.61976 0.0867,0.71143 0.1698,1.41893 0.11883,2.13765 -0.014,0.76461 -0.01,1.53272 -0.10998,2.29226 -0.12177,0.90445 -0.28746,1.80301 -0.33078,2.71616 -0.0692,0.79134 -0.0918,1.58098 -0.004,2.373 0.0814,0.7676 0.24132,1.51877 0.44495,2.26328 0.1498,0.82511 0.27568,1.65223 0.31418,2.4911 0.016,0.10826 0.0332,0.2799 0.0736,0.39229 0.0527,0.14653 0.16798,-0.0743 0.10096,-0.035 -1.03603,0.60647 -2.05588,1.24017 -3.08382,1.86025 0.32229,-0.20591 0.37668,-0.86674 0.48361,-1.2246 0.10442,-0.45181 0.15179,-0.90769 0.25714,-1.35937 0.14147,-0.46562 0.19762,-0.93822 0.28723,-1.41706 0.0922,-0.45577 0.0474,-0.92971 0.16381,-1.38379 0.10507,-0.40927 0.24703,-0.79946 0.2864,-1.2246 0.11152,-0.4668 0.10755,-0.9307 0.0937,-1.41059 -0.002,-0.50728 -0.004,-1.01501 -0.0372,-1.5214 -0.0448,-0.56721 -0.13108,-1.12825 -0.21095,-1.6913 -0.006,-0.49874 -0.0119,-0.99869 -0.0611,-1.49539 -0.0616,-0.48548 -0.20067,-0.95762 -0.2263,-1.44684 -0.0604,-0.59458 -0.14968,-1.20044 -0.47192,-1.71721 -0.26613,-0.39283 -0.65312,-0.49642 -1.11308,-0.51813 -0.42338,-0.0541 -0.83738,-0.14251 -1.23487,0.0689 0.98871,-0.57735 1.98094,-1.14872 2.96614,-1.73204 0.0709,-0.042 -0.15201,0.0648 -0.22241,0.10749 -0.30902,0.18746 -0.49419,0.48803 -0.6379,0.81059 -0.16459,0.43389 -0.34664,0.85895 -0.39969,1.32521 -0.12929,0.56038 -0.10534,1.12485 -0.10688,1.69876 -0.005,0.8228 -0.003,1.64607 0.037,2.46809 0.0469,0.85117 0.11989,1.6998 0.24249,2.54382 0.0351,0.67615 0.0977,1.34909 0.19046,2.01992 0.0711,0.8415 0.006,1.68906 0.0356,2.53288 0.004,0.70351 0.007,1.40701 0.008,2.11053 -0.009,0.76012 -0.0175,1.52023 -0.0226,2.28039 -0.004,0.97768 0.002,1.95655 0.0688,2.93234 0.0649,0.71516 0.15153,1.4297 0.42079,2.10182 0.2048,0.37149 0.50739,0.64876 0.86461,0.87573 0.4235,0.22723 0.68818,0.23021 1.12106,-0.006 -7.11688,4.14274 -2.83482,1.9102 -2.2027,1.11295 0.3718,-0.39923 0.50968,-0.9173 0.4404,-1.45689 -0.0628,-0.70814 -0.15694,-1.41377 -0.35472,-2.09868 -5.3e-4,-0.004 -0.0621,-0.48008 -0.0598,-0.48175 1.52106,-1.08797 2.62019,-3.04061 3.64115,-1.69276 0.21507,0.34513 0.38814,0.71826 0.69961,0.99272 0.32811,0.39537 0.65641,0.78972 0.96835,1.19821 0.28527,0.39094 0.55396,0.80979 0.61321,1.30098 0.098,0.48271 0.16728,0.95547 0.10492,1.45034 -0.0323,0.49873 -0.0823,0.99993 -0.2534,1.47345 -0.0764,0.1976 -0.11303,0.40424 -0.19452,0.59941 -0.2321,0.55594 0.064,-0.19046 -0.1826,0.31636 -0.0298,0.0613 -0.0445,0.12885 -0.0667,0.19327 -0.16885,0.34433 -0.35383,0.67536 -0.52672,1.01625 -0.0721,0.10808 -0.12418,0.21396 -0.24085,0.28341 -1.28117,0.76256 -2.4491,2.10368 -3.99335,1.98561 -0.49207,-0.0723 -0.964,-0.20173 -1.37877,-0.48907 -0.38502,-0.23183 -0.7829,-0.4514 -1.122,-0.74953 -0.34154,-0.34539 -0.5669,-0.73062 -0.50912,-1.2368 0.14057,-0.46178 0.40835,-0.84703 0.60131,-1.28615 0.14015,-0.38668 0.31877,-0.7669 0.39609,-1.17003 0.0965,-0.46693 0.18856,-0.91648 0.14069,-1.3993 0.005,-0.63939 0.0132,-1.27882 0.006,-1.91822 -0.0176,-0.85873 -0.0394,-1.71911 -0.15856,-2.57113 -0.1162,-0.77614 -0.27912,-1.54442 -0.3531,-2.32672 -0.005,-0.63307 0.007,-1.26613 0.0232,-1.89899 0.0345,-0.62576 0.0758,-1.2537 0.20745,-1.86795 0.0389,-0.19487 0.0621,-0.79906 0.10731,-0.82745 3.26776,-2.05032 2.38889,-2.77597 3.47262,-1.76668 0.22157,0.3596 0.23165,0.85305 0.25187,1.2641 -10e-4,0.58009 -0.003,1.1604 0.018,1.74021 0.031,0.652 0.0884,1.3025 0.19347,1.94716 0.069,0.53082 0.0378,1.06514 0.0424,1.59957 1e-4,0.51639 -7.9e-4,1.033 0.0202,1.54907 0.0303,0.59116 0.086,1.1807 0.19482,1.76319 0.0987,0.67065 0.0553,1.35666 0.17599,2.02663 0.12453,0.87551 0.2473,1.74879 0.31113,2.63152 0.0647,0.72652 0.0265,1.45523 0.0701,2.18321 0,0 -3.3382,1.7009 -3.3382,1.7009 z"
         id="path4189"
         style="opacity:0.98999999;fill:#000000;fill-opacity:1;stroke-width:81.30000305;stroke-miterlimit:4;stroke-dasharray:none" />
      <path
         inkscape:connector-curvature="0"
         d="m 300.45863,489.9886 c 0.55181,0.28223 1.10675,0.55546 1.65417,0.8468 0.43799,0.2274 0.92219,0.27495 1.40626,0.30069 0.49642,0.0163 0.99324,0.0104 1.48984,0.008 0.51745,0.0278 1.01741,-0.0152 1.52591,-0.0951 0.57005,-0.0919 1.14614,-0.12986 1.72251,-0.15085 0.52536,-0.002 1.04195,0.13241 1.56503,0.18868 0.53671,-0.007 1.03243,0.15696 1.53359,0.32515 0.40671,0.21568 0.83808,0.37325 1.20352,0.65758 0.30897,0.21432 0.57085,0.4862 0.85431,0.73313 0.36874,0.24731 0.70507,0.54123 1.07629,0.78584 0.46832,0.29677 0.8874,0.65545 1.32883,0.98756 0.44354,0.34406 0.86545,0.71381 1.31585,1.04862 0.33674,0.32151 0.67397,0.63923 1.02873,0.94094 0.41344,0.38142 0.82784,0.75622 1.30328,1.05924 0.44684,0.33081 0.98905,0.47987 1.47103,0.74541 0.39448,0.23482 0.83739,0.29646 1.28611,0.33078 0.49015,0.0255 0.98124,0.0206 1.47187,0.0192 0.57342,0.004 1.14687,-9e-5 1.72029,-0.002 0.52175,-0.002 1.04349,-0.002 1.56524,-0.002 0.48873,-0.0314 0.99547,0.067 1.47317,-0.0529 0.44357,-0.0915 0.87714,-0.18204 1.29146,-0.37022 -0.20647,0.21164 0.97482,-0.51802 0.64898,-0.33018 -5.02025,2.89407 -3.73897,2.22354 -2.6575,1.48191 0.37035,-0.25027 0.7275,-0.51891 1.10488,-0.75894 0.44456,-0.29224 0.86075,-0.61841 1.26013,-0.96937 0.50263,-0.46266 0.99928,-0.93332 1.46646,-1.43196 0.36917,-0.4072 0.74155,-0.81505 1.04432,-1.27501 0.28373,-0.44694 0.5131,-0.92252 0.76147,-1.38874 0.20758,-0.41012 0.46384,-0.79191 0.67537,-1.19944 0.23097,-0.47594 0.46339,-0.94919 0.72715,-1.40792 0.32231,-0.5089 0.55175,-1.06596 0.79928,-1.61294 0.33924,-0.63128 0.4852,-1.32048 0.62173,-2.01558 0.14713,-0.59648 0.22625,-1.20483 0.26885,-1.81671 0.007,-0.68015 0.10852,-1.35182 0.18319,-2.0263 0.0516,-0.72127 0.10717,-1.43924 0.20394,-2.15612 0.0568,-0.67007 0.21855,-1.31015 0.47877,-1.92779 0.27002,-0.57476 0.58456,-1.12717 0.89945,-1.67821 0.3424,-0.57287 0.75111,-1.1067 1.17538,-1.62112 0.47782,-0.51892 0.90551,-1.08102 1.28492,-1.67513 0.37263,-0.52147 0.68597,-1.07761 1.0155,-1.62574 0.30958,-0.44773 0.65972,-0.8583 1.0429,-1.24346 0.35573,-0.41977 0.77129,-0.77937 1.20131,-1.1201 1.36493,-1.04526 2.89117,-1.9091 4.4688,-2.59211 0.47849,-0.24514 0.98386,-0.45291 1.5012,-0.60215 0.47674,-0.25133 1.02009,-0.27178 1.52578,-0.4205 0.49957,-0.14766 1.01806,-0.19458 1.53573,-0.22192 0.50744,-0.0196 1.01539,-0.0172 1.52311,-0.0166 0.50514,10e-4 1.01027,0.002 1.51541,0.002 0.47843,-0.041 1.00479,-0.0815 1.45746,-0.25459 0.27055,-0.13943 0.58324,-0.12618 0.86861,-0.20044 0.13067,-0.034 0.25124,-0.0993 0.37902,-0.14293 0.44819,-0.0966 0.87459,-0.25041 1.32803,-0.32919 0.48424,-0.18404 0.99463,-0.26034 1.50767,-0.30518 0.62448,-0.0547 1.24411,-0.1671 1.87054,-0.22574 0.49399,-0.0513 0.99168,-0.0338 1.48626,-0.0716 0,0 -3.03415,2.21457 -3.03415,2.21457 l 0,0 c -0.47517,-0.0204 -0.95119,0.0245 -1.4243,0.0628 -0.62894,0.069 -1.25133,0.18263 -1.88161,0.23923 -0.5064,0.0708 -0.99548,0.20314 -1.4888,0.33453 -0.4414,0.10864 -0.87632,0.24347 -1.31365,0.36686 -0.41255,0.12344 -0.84383,0.18047 -1.25118,0.32643 -0.49984,0.0885 -1.00227,0.1919 -1.51258,0.17073 -0.50501,-6.4e-4 -1.01002,-0.002 -1.51504,-0.002 -0.50259,10e-4 -1.00581,10e-4 -1.50736,0.0378 -0.50653,0.0462 -1.00613,0.13121 -1.4958,0.27178 -0.51588,0.10587 -1.01874,0.24345 -1.50815,0.44118 -0.503,0.1854 -0.99775,0.39241 -1.47407,0.63914 -1.16315,0.593 -2.64589,1.50131 2.50783,-1.48514 0.51319,-0.29738 -1.14766,0.5845 -0.62458,0.3698 -0.4025,0.36106 -0.87685,0.64985 -1.21789,1.0779 -0.35038,0.40457 -0.76635,0.74634 -1.069,1.19459 -0.39254,0.5065 -0.62067,1.12595 -1.03823,1.62 -0.37476,0.60862 -0.77108,1.20742 -1.2675,1.72609 -0.43218,0.49087 -0.80983,1.01735 -1.19189,1.54718 -0.2954,0.55459 -0.63228,1.08312 -0.91317,1.64615 -0.26503,0.59089 -0.5025,1.18182 -0.52775,1.84118 -0.10756,0.71388 -0.19447,1.42407 -0.21391,2.14694 -0.0704,0.66746 -0.19146,1.33004 -0.17216,2.00329 -0.0387,0.63128 -0.11286,1.25965 -0.25926,1.87607 -0.17695,0.69883 -0.2307,1.43296 -0.58624,2.07889 -0.23967,0.55444 -0.45839,1.12439 -0.77519,1.63975 -0.24927,0.45985 -0.52812,0.90309 -0.71729,1.39361 -0.21788,0.40727 -0.43367,0.8064 -0.6777,1.19876 -0.24281,0.47548 -0.48735,0.94792 -0.76206,1.40684 -0.25889,0.50733 -0.6376,0.94343 -1.03293,1.35027 -0.43986,0.52801 -0.95707,0.98505 -1.44518,1.4677 -0.38373,0.35896 -0.76783,0.7273 -1.22245,0.99651 -0.34184,0.28349 -0.74758,0.49585 -1.1036,0.75974 -1.3363,1.02449 -2.81883,1.89303 -4.38397,2.51457 -0.44083,0.14022 -0.89076,0.24461 -1.34964,0.30673 -0.49858,0.0163 -0.9976,0.004 -1.49637,0.008 -0.51998,-1.6e-4 -1.03995,-4.6e-4 -1.55993,-8.2e-4 -0.57531,-2.1e-4 -1.15064,-0.001 -1.72592,0.006 -0.49986,-5.7e-4 -1.00121,0.002 -1.49898,-0.0498 -0.48149,-0.0672 -0.94275,-0.19179 -1.36153,-0.44876 -0.50043,-0.24998 -1.03146,-0.44478 -1.4829,-0.78423 -0.47264,-0.33071 -0.90394,-0.70926 -1.34053,-1.08533 -0.35115,-0.29618 -0.67191,-0.62484 -1.01355,-0.93162 -0.43625,-0.3523 -0.8674,-0.71091 -1.31453,-1.04961 -0.42632,-0.34086 -0.85572,-0.67479 -1.31833,-0.96652 -0.37593,-0.26311 -0.74408,-0.53673 -1.11076,-0.81249 -0.2805,-0.23526 -0.53395,-0.5035 -0.84023,-0.70687 -0.35121,-0.2324 -0.73808,-0.40386 -1.12317,-0.5716 -0.48794,-0.15542 -0.98306,-0.23514 -1.49461,-0.26392 -0.50634,-0.0685 -1.01165,-0.18651 -1.52564,-0.14115 -0.56828,0.0303 -1.1348,0.0837 -1.69628,0.17895 -0.51945,0.0731 -1.04155,0.0557 -1.56518,0.0576 -0.50329,10e-4 -1.00752,0.007 -1.50969,-0.0325 -0.52074,-0.0561 -1.02826,-0.16519 -1.48481,-0.43604 -0.53402,-0.30084 -1.08423,-0.57271 -1.65795,-0.79046 0,0 3.10995,-2.08349 3.10995,-2.08349 z"
         id="path4191"
         style="opacity:0.98999999;fill:#000000;fill-opacity:1;stroke-width:81.30000305;stroke-miterlimit:4;stroke-dasharray:none" />
      <path
         inkscape:connector-curvature="0"
         d="m 297.31758,509.11297 c -0.40784,-0.32029 -0.85446,-0.59456 -1.31346,-0.83581 -0.55349,-0.30708 -0.99593,-0.77557 -1.46136,-1.19814 -0.79392,-0.66182 -1.64824,-1.24433 -2.50634,-1.81859 -0.68884,-0.47084 -1.39241,-0.91947 -2.09222,-1.37369 -0.5007,-0.30558 -1.03014,-0.55712 -1.54462,-0.83712 -0.54085,-0.26859 -1.08427,-0.53225 -1.66616,-0.70005 -0.64303,-0.26469 -1.28588,-0.49355 -1.97384,-0.60749 -0.7008,-0.16741 -1.41336,-0.27214 -2.12141,-0.40328 -0.87783,-0.16273 -1.75479,-0.30725 -2.64499,-0.38497 -0.83691,-0.16368 -1.69447,-0.18006 -2.53284,-0.32398 -0.68609,-0.15441 -1.3941,-0.14578 -2.08365,-0.26612 -0.60587,-0.0675 -1.1789,-0.27077 -1.77724,-0.37817 -0.52522,-0.11225 -1.06779,-0.1928 -1.58378,-0.34569 -0.5179,-0.10994 -1.02266,-0.27035 -1.5411,-0.37658 -0.63739,-0.0993 -1.23146,-0.35787 -1.86032,-0.50125 -0.55057,-0.17963 -1.11399,-0.31104 -1.67502,-0.45143 -0.60998,-0.12222 -1.22569,-0.23126 -1.82492,-0.40048 -0.61239,-0.1343 -1.2011,-0.34437 -1.79522,-0.54081 -0.55151,-0.21304 -1.13326,-0.32361 -1.69529,-0.49767 -0.53294,-0.12643 -1.04081,-0.3192 -1.54836,-0.52131 -0.47616,-0.25969 -0.97776,-0.46025 -1.4701,-0.6841 -0.49874,-0.2307 -1.02557,-0.39195 -1.51035,-0.65173 -0.4805,-0.20631 -0.94832,-0.42956 -1.37825,-0.72957 -0.49453,-0.40144 -1.07343,-0.66167 -1.61358,-0.99019 -0.60458,-0.37207 -1.19654,-0.76738 -1.82641,-1.09611 -0.56315,-0.34453 -1.16118,-0.63478 -1.71433,-0.99465 -0.45837,-0.28551 -0.90847,-0.58814 -1.34277,-0.90985 -0.47916,-0.4038 -0.97354,-0.79077 -1.42462,-1.22617 -0.40851,-0.32477 -0.79476,-0.67522 -1.14063,-1.06603 -0.40938,-0.47823 -0.89388,-0.88353 -1.3349,-1.33109 -0.45665,-0.50976 -0.94153,-0.99508 -1.38115,-1.51965 -0.40949,-0.50742 -0.80766,-1.02817 -1.29054,-1.46852 -0.40876,-0.38783 -0.75618,-0.83209 -1.11656,-1.26355 -0.36442,-0.45801 -0.71181,-0.9279 -1.04052,-1.41266 -0.27834,-0.46845 -0.49686,-0.96797 -0.73881,-1.45524 -0.27659,-0.51178 -0.59044,-1.00071 -0.90284,-1.49099 -0.37239,-0.39693 -0.68809,-0.84034 -1.03384,-1.25875 -0.3604,-0.38823 -0.64566,-0.83776 -0.98253,-1.24464 -0.326,-0.41607 -0.58724,-0.87495 -0.90229,-1.29893 -0.45876,-0.63659 -0.89522,-1.28855 -1.34192,-1.93355 -0.4254,-0.65163 -0.84861,-1.30537 -1.30975,-1.93245 -0.38947,-0.56425 -0.78392,-1.12771 -1.22257,-1.6549 -0.47677,-0.54536 -0.91105,-1.12444 -1.32361,-1.72029 -0.4684,-0.6471 -0.95095,-1.2849 -1.44706,-1.91118 -0.49262,-0.57509 -0.91102,-1.20672 -1.40504,-1.7802 -0.33783,-0.34353 -0.72606,-0.63218 -1.06495,-0.97324 -0.38079,-0.29469 -0.7121,-0.64585 -1.09172,-0.94104 -0.33306,-0.33992 -0.77011,-0.53789 -1.13362,-0.8381 -0.28296,-0.23205 -0.57139,-0.44806 -0.88533,-0.63801 -0.33925,-0.17971 -0.67976,-0.35366 -1.03772,-0.49886 -0.0705,-0.0215 -0.14295,-0.0374 -0.21141,-0.0646 -0.309,-0.12305 -0.10866,-0.0834 -0.40749,-0.18912 -0.23539,-0.0833 -0.48559,-0.11834 -0.72433,-0.19372 -0.5845,-0.16004 -1.18227,-0.27795 -1.75881,-0.46622 -0.53551,-0.14204 -1.04854,-0.34697 -1.59201,-0.45907 -0.51267,-0.10765 -1.04282,-0.19185 -1.54458,-0.34681 -0.49238,-0.13582 -0.99361,-0.20946 -1.48874,-0.33333 -0.46991,-0.0585 -0.9022,-0.24856 -1.3644,-0.3415 -0.47801,-0.0423 -0.93473,-0.18564 -1.40871,-0.25852 -0.49517,-0.0652 -0.99532,-0.0714 -1.49394,-0.0768 -0.50478,-0.003 -1.00957,-0.001 -1.51436,-1.8e-4 -0.50517,8.4e-4 -1.01034,10e-4 -1.51551,10e-4 -0.49574,0.11358 -0.99827,0.18187 -1.50482,0.22082 -0.50767,0.0317 -1.01657,0.0324 -1.52502,0.0337 -0.51428,-4.7e-4 -1.02857,0.001 -1.54283,-0.004 -0.57016,-0.003 -1.14033,-6.1e-4 -1.71049,4.2e-4 -0.51572,9.3e-4 -1.03144,10e-4 -1.54716,10e-4 -0.50473,1e-4 -1.00946,8e-5 -1.5142,8e-5 0,0 3.0085,-2.18581 3.0085,-2.18581 l 0,0 c 0.50467,-10e-6 1.00934,-3e-5 1.51401,6e-5 0.51449,1.4e-4 1.02898,3.7e-4 1.54347,10e-4 0.56927,0.001 1.13854,0.004 1.70781,0.002 0.51601,-0.004 1.03203,2.2e-4 1.54804,-0.003 0.5022,-0.005 1.0052,-0.0107 1.50543,-0.0599 0.5099,-0.057 1.01281,-0.16979 1.52562,-0.19299 0.50509,-2.4e-4 1.01017,-6.7e-4 1.51525,-0.002 0.50618,-6.8e-4 1.01241,-0.003 1.51854,0.006 0.51077,0.0127 1.02306,0.0326 1.52719,0.1227 0.47633,0.0903 0.94921,0.19569 1.4281,0.2716 0.45255,0.11908 0.89473,0.27376 1.35808,0.3507 0.49729,0.11851 1.00622,0.18445 1.49488,0.33998 0.51105,0.11679 1.01966,0.24534 1.53572,0.33825 0.53799,0.14174 1.0605,0.335 1.59642,0.48465 0.5848,0.16345 1.17597,0.30156 1.7626,0.4573 0.47454,0.12341 0.92909,0.28161 1.37904,0.47677 0.37113,0.16273 0.73483,0.3356 1.08211,0.54564 0.31223,0.21033 0.61422,0.42918 0.90167,0.67238 0.37293,0.28216 0.7796,0.52065 1.11379,0.85207 0.38301,0.31405 0.75649,0.64043 1.1333,0.96169 0.35047,0.34053 0.72336,0.65786 1.05238,1.02047 0.48212,0.58658 0.89095,1.22963 1.39299,1.80127 0.4965,0.63425 0.98978,1.27183 1.4597,1.92603 0.41842,0.58092 0.84914,1.15045 1.32158,1.68801 0.44196,0.53354 0.83788,1.10511 1.22214,1.68145 0.45975,0.63162 0.89487,1.28098 1.30411,1.94652 0.44557,0.64141 0.89114,1.28298 1.36763,1.90207 0.31727,0.41779 0.58697,0.86619 0.90391,1.28405 0.32538,0.41672 0.63039,0.85041 0.98444,1.24431 0.34096,0.43917 0.6851,0.8738 1.0432,1.29904 0.32043,0.50031 0.63969,1.00067 0.9275,1.5207 0.23983,0.4714 0.45185,0.9566 0.71462,1.41629 0.31544,0.47893 0.65912,0.93669 1.02814,1.37569 0.34699,0.42232 0.68136,0.85644 1.07649,1.23581 0.47565,0.46745 0.89917,0.98265 1.31148,1.50625 0.43062,0.51841 0.91177,0.99333 1.36196,1.49473 0.44837,0.45138 0.94411,0.85537 1.36776,1.33146 0.3459,0.37725 0.7225,0.72105 1.11462,1.0497 0.44244,0.42012 0.9126,0.81183 1.3974,1.18201 0.43857,0.30632 0.88366,0.60382 1.33437,0.89192 0.54788,0.34693 1.11861,0.65896 1.67984,0.9835 0.62627,0.34895 1.22836,0.73741 1.84564,1.10155 0.55349,0.32022 1.11368,0.62598 1.63657,0.99638 0.43119,0.26742 0.88905,0.48201 1.34838,0.69603 0.49339,0.22813 1.00847,0.40737 1.50275,0.63453 0.49535,0.20969 0.97427,0.45164 1.4642,0.67338 0.49651,0.20004 1.00917,0.34721 1.52387,0.49292 0.57225,0.15183 1.13644,0.32005 1.69558,0.51631 0.58615,0.19817 1.18007,0.36969 1.7803,0.52003 0.60737,0.14267 1.2201,0.26066 1.82927,0.39482 0.55918,0.14274 1.11955,0.27907 1.66999,0.45363 0.61914,0.16798 1.22286,0.39605 1.86065,0.48833 0.5197,0.12179 1.03711,0.25398 1.55481,0.38416 0.5214,0.11556 1.04174,0.23739 1.56755,0.33117 0.58384,0.12845 1.15631,0.30826 1.75341,0.37079 0.69368,0.0797 1.38977,0.14236 2.07643,0.27425 0.83431,0.10998 1.67053,0.20599 2.5044,0.31975 0.89846,0.0959 1.78665,0.25324 2.67793,0.39933 0.7114,0.12779 1.42645,0.23616 2.13094,0.39997 0.68983,0.1472 1.33833,0.40607 2.0014,0.64089 0.59195,0.20058 1.16212,0.45943 1.71575,0.74923 0.52631,0.2742 1.05231,0.5503 1.55067,0.87375 0.68933,0.45868 1.36763,0.93394 2.04579,1.4089 0.86868,0.59203 1.74467,1.17654 2.56684,1.83288 0.46716,0.3884 0.89957,0.83296 1.44271,1.11575 0.45349,0.25687 0.89059,0.54022 1.34109,0.80145 0,0 -3.13349,2.06173 -3.13349,2.06173 z"
         id="path4195"
         style="opacity:0.98999999;fill:#000000;fill-opacity:1;stroke-width:81.30000305;stroke-miterlimit:4;stroke-dasharray:none" />
      <path
         inkscape:connector-curvature="0"
         d="m 299.69901,506.72672 c 0.39157,0.35965 0.7605,0.75937 1.19963,1.06244 0.35887,0.28567 0.75765,0.46846 1.07292,0.80925 0.27494,0.29118 0.56004,0.57543 0.82,0.88044 0.25199,0.33029 0.43822,0.69228 0.60434,1.07187 0.1843,0.39648 0.45876,0.72506 0.72838,1.06414 0.30473,0.37794 0.55943,0.75375 0.70448,1.22037 0.17985,0.40206 0.27634,0.82454 0.3315,1.25932 0.028,0.31921 0.0264,0.63991 0.0289,0.96 0,0 -3.28386,1.68141 -3.28386,1.68141 l 0,0 c -0.01,-0.30413 -0.0176,-0.60855 -0.0446,-0.91179 -0.0436,-0.41646 -0.12788,-0.81968 -0.30334,-1.20307 -0.11489,-0.42477 -0.35653,-0.75335 -0.62815,-1.09501 -0.2944,-0.36048 -0.58083,-0.72309 -0.78073,-1.147 -0.15292,-0.34363 -0.32765,-0.67083 -0.55671,-0.97037 -0.26093,-0.29455 -0.52806,-0.58458 -0.80232,-0.86651 -0.31072,-0.30001 -0.71425,-0.46959 -1.03059,-0.76522 -0.42153,-0.334 -0.7919,-0.72774 -1.2262,-1.04757 0,0 3.16636,-2.0027 3.16636,-2.0027 z"
         id="path4197"
         style="opacity:0.98999999;fill:#000000;fill-opacity:1;stroke-width:81.30000305;stroke-miterlimit:4;stroke-dasharray:none" />
    </g>
  </g>
</svg>
